<svg width="1200" height="430" viewBox="0 0 1200 430" fill="none" xmlns="http://www.w3.org/2000/svg">
  <rect width="1200" height="430" rx="28" fill="#282A36"/>
  <defs>
    <radialGradient id="g1" cx="0" cy="0" r="1" gradientUnits="userSpaceOnUse" gradientTransform="translate(248 94) rotate(52) scale(420 260)">
      <stop stop-color="#FF79C6" stop-opacity=".8"/>
      <stop offset=".48" stop-color="#BD93F9" stop-opacity=".34"/>
      <stop offset="1" stop-color="#282A36" stop-opacity="0"/>
    </radialGradient>
    <radialGradient id="g2" cx="0" cy="0" r="1" gradientUnits="userSpaceOnUse" gradientTransform="translate(940 138) rotate(118) scale(380 250)">
      <stop stop-color="#8BE9FD" stop-opacity=".72"/>
      <stop offset=".45" stop-color="#BD93F9" stop-opacity=".28"/>
      <stop offset="1" stop-color="#282A36" stop-opacity="0"/>
    </radialGradient>
    <linearGradient id="line" x1="180" y1="360" x2="1010" y2="82" gradientUnits="userSpaceOnUse">
      <stop stop-color="#8BE9FD"/>
      <stop offset=".5" stop-color="#BD93F9"/>
      <stop offset="1" stop-color="#FF79C6"/>
    </linearGradient>
  </defs>
  <rect width="1200" height="430" rx="28" fill="url(#g1)"/>
  <rect width="1200" height="430" rx="28" fill="url(#g2)"/>
  <path d="M0 330C150 270 236 386 381 320C535 250 580 170 735 210C865 244 925 310 1200 230V430H0V330Z" fill="#1B1D29" opacity=".75"/>
  <path d="M0 356C156 316 251 385 394 342C552 294 602 230 758 257C916 284 960 343 1200 292V430H0V356Z" fill="#191A25"/>
  <path d="M183 354C294 260 431 225 585 255C721 282 823 216 1018 79" stroke="url(#line)" stroke-width="2" opacity=".55"/>
  <circle cx="183" cy="354" r="5" fill="#8BE9FD"/>
  <circle cx="388" cy="236" r="4" fill="#BD93F9"/>
  <circle cx="585" cy="255" r="5" fill="#FF79C6"/>
  <circle cx="799" cy="226" r="4" fill="#F1FA8C"/>
  <circle cx="1018" cy="79" r="6" fill="#8BE9FD"/>
  <g opacity=".9">
    <circle cx="90" cy="66" r="1.5" fill="#F8F8F2"/><circle cx="142" cy="142" r="1.2" fill="#F8F8F2"/><circle cx="222" cy="52" r="1.6" fill="#F8F8F2"/>
    <circle cx="318" cy="120" r="1.2" fill="#F8F8F2"/><circle cx="472" cy="72" r="1.6" fill="#F8F8F2"/><circle cx="538" cy="154" r="1.2" fill="#F8F8F2"/>
    <circle cx="668" cy="86" r="1.7" fill="#F8F8F2"/><circle cx="744" cy="132" r="1.2" fill="#F8F8F2"/><circle cx="884" cy="58" r="1.5" fill="#F8F8F2"/>
    <circle cx="1038" cy="154" r="1.4" fill="#F8F8F2"/><circle cx="1100" cy="82" r="1.6" fill="#F8F8F2"/><circle cx="1148" cy="204" r="1.2" fill="#F8F8F2"/>
    <circle cx="640" cy="28" r="2.2" fill="#F1FA8C"/><circle cx="74" cy="238" r="1.2" fill="#8BE9FD"/><circle cx="1110" cy="310" r="1.6" fill="#FF79C6"/>
  </g>
  <text x="600" y="155" text-anchor="middle" font-family="Poppins, Arial, sans-serif" font-size="54" font-weight="800" fill="#F8F8F2">Rebecca Peter Dsouza</text>
  <text x="600" y="203" text-anchor="middle" font-family="Poppins, Arial, sans-serif" font-size="20" font-weight="600" fill="#F8F8F2">Statistics | AIML | Mathematics | Quant Finance</text>
  <text x="600" y="242" text-anchor="middle" font-family="Poppins, Arial, sans-serif" font-size="16" font-weight="500" fill="#BD93F9">turning curiosity into models, code, and measurable progress</text>
</svg>
